<svg xmlns="http://www.w3.org/2000/svg" viewBox="0 0 540 130" role="img" aria-labelledby="title desc">
<title id="title">Launch Assist Studio</title>
<desc id="desc">Angular blue launch mark with Launch Assist Studio wordmark.</desc>
<defs>
  <linearGradient id="g" x1="0" x2="1" y1="0" y2="1">
    <stop offset="0" stop-color="#5CC2FF"/>
    <stop offset=".55" stop-color="#2563EB"/>
    <stop offset="1" stop-color="#1646B7"/>
  </linearGradient>
</defs>
<g transform="translate(4 6)">
  <!-- stylized launch / A mark -->
  <path d="M28 102 70 16l42 86-18-14-24-49-25 50-17 13Z" fill="url(#g)"/>
  <path d="M14 110c25-11 47-19 78-21-15 7-26 14-36 26-17-3-29-2-42-5Z" fill="#F8FAFC"/>
  <path d="M70 16 97 70 77 58 70 16Z" fill="#75CEFF" opacity=".9"/>
  <path d="M70 55 84 84H55l15-29Z" fill="#0D1B2A"/>
</g>
<g transform="translate(140 22)">
  <text x="0" y="34" font-family="Poppins,Arial,sans-serif" font-size="34" font-weight="700" letter-spacing="7" fill="#F8FAFC">LAUNCH</text>
  <text x="0" y="74" font-family="Poppins,Arial,sans-serif" font-size="34" font-weight="700" letter-spacing="7" fill="#2563EB">ASSIST</text>
  <line x1="0" y1="93" x2="34" y2="93" stroke="#CBD5E1" stroke-width="2"/>
  <text x="50" y="99" font-family="Inter,Arial,sans-serif" font-size="17" letter-spacing="9" fill="#F8FAFC">STUDIO</text>
  <line x1="212" y1="93" x2="246" y2="93" stroke="#CBD5E1" stroke-width="2"/>
</g>
</svg>